<?xml version="1.0" standalone="no"?>
<!DOCTYPE svg PUBLIC "-//W3C//DTD SVG 20010904//EN"
 "http://www.w3.org/TR/2001/REC-SVG-20010904/DTD/svg10.dtd">
<svg version="1.0" xmlns="http://www.w3.org/2000/svg"
 width="500.000000pt" height="500.000000pt" viewBox="0 0 500.000000 500.000000"
 preserveAspectRatio="xMidYMid meet">

<g transform="translate(0.000000,500.000000) scale(0.100000,-0.100000)"
fill="#000000" stroke="none">
<path d="M1924 3533 c-52 -55 -112 -162 -161 -291 -46 -119 -93 -281 -93 -320
0 -13 -6 -38 -14 -55 -8 -18 -17 -45 -19 -62 -3 -16 -24 -75 -47 -130 -54
-131 -102 -289 -135 -450 -27 -130 -29 -196 -8 -290 8 -38 11 -40 48 -43 21
-2 84 2 139 8 56 6 225 15 376 21 232 9 282 13 318 29 23 10 42 24 42 30 0 27
-63 70 -178 120 -94 41 -119 56 -107 62 9 5 107 14 218 19 111 5 245 13 297
19 110 11 248 44 268 64 41 41 -105 71 -608 126 -224 24 -330 40 -330 50 0 19
277 39 528 40 206 0 212 1 212 20 0 20 -4 21 -147 15 -518 -20 -754 -47 -720
-82 15 -15 146 -34 427 -63 473 -49 645 -86 556 -120 -31 -11 -318 -36 -582
-49 -208 -11 -237 -15 -232 -35 4 -13 94 -59 203 -104 85 -34 134 -66 122 -78
-14 -14 -112 -23 -272 -23 -88 -1 -223 -8 -300 -16 -77 -8 -156 -15 -175 -15
l-35 1 27 20 c15 11 40 43 57 72 68 120 195 472 232 642 7 33 21 71 31 84 10
13 18 32 18 41 0 10 15 49 34 86 37 76 93 236 127 365 15 57 23 115 23 181 1
89 -1 98 -23 122 -36 38 -72 34 -117 -11z m-39 -205 c-12 -63 -22 -92 -72
-227 -30 -80 -57 -148 -59 -150 -9 -9 10 67 42 174 43 143 104 282 89 203z
m-114 -488 c40 -11 75 -43 64 -59 -4 -7 -16 -6 -35 4 -16 9 -50 18 -75 22 -27
3 -45 11 -45 19 0 24 36 29 91 14z m-135 -292 c-26 -102 -109 -378 -113 -374
-6 6 45 214 83 335 38 120 56 145 30 39z m-147 -619 c-13 -26 -19 -24 -19 6 0
17 4 23 15 19 11 -5 12 -11 4 -25z"/>
</g>
</svg>
